<svg id="Layer_1" data-name="Layer 1" xmlns="http://www.w3.org/2000/svg" viewBox="0 0 1078.39 1080"><defs><style>.cls-1,.cls-2{fill:#181616;}.cls-1{fill-rule:evenodd;}</style></defs><title>github</title><path class="cls-1" d="M539.19,0C241.45,0,0,247.87,0,553.67c0,244.62,154.49,452.16,368.73,525.38,26.95,5.12,36.84-12,36.84-26.64,0-13.2-.49-56.82-.73-103.08C254.84,982.82,223.19,884,223.19,884c-24.53-64-59.87-81-59.87-81-48.93-34.37,3.69-33.66,3.69-33.66,54.14,3.9,82.65,57.06,82.65,57.06,48.09,84.64,126.14,60.17,156.91,46,4.84-35.78,18.81-60.21,34.23-74C321,784.38,195.14,736.9,195.14,524.75c0-60.45,21.06-109.84,55.56-148.61-5.6-13.95-24.06-70.26,5.22-146.53,0,0,45.28-14.87,148.31,56.76,43-12.27,89.14-18.42,135-18.64,45.82.22,92,6.37,135.08,18.64,102.92-71.63,148.13-56.76,148.13-56.76,29.35,76.27,10.89,132.58,5.29,146.53,34.57,38.77,55.49,88.16,55.49,148.61C883.18,737.41,757,784.23,637,797.94c19.34,17.18,36.57,50.87,36.57,102.53,0,74.08-.61,133.7-.61,151.94,0,14.74,9.7,32,37,26.57,214.12-73.3,368.43-280.77,368.43-525.31C1078.39,247.87,837,0,539.19,0Z"/><path class="cls-2" d="M592.88,911.28c-.66,1.49-3,1.94-5.13.91s-3.39-3-2.69-4.5,3-2,5.16-.93,3.41,3,2.66,4.52Zm-3.68-2.73"/><path class="cls-2" d="M605,924.81c-1.42,1.32-4.22.71-6.11-1.39s-2.33-4.88-.88-6.22,4.18-.7,6.14,1.39,2.35,4.88.85,6.22Zm-2.85-3.07"/><path class="cls-2" d="M616.82,942.05c-1.83,1.28-4.84.09-6.69-2.58s-1.84-5.86,0-7.14,4.82-.12,6.7,2.52,1.83,5.9,0,7.2Zm0,0"/><path class="cls-2" d="M633,958.72c-1.65,1.81-5.14,1.32-7.7-1.15s-3.35-5.84-1.7-7.65,5.18-1.3,7.75,1.15,3.39,5.86,1.65,7.65Zm0,0"/><path class="cls-2" d="M655.31,968.39c-.72,2.35-4.09,3.41-7.48,2.42s-5.6-3.78-4.92-6.15,4.09-3.47,7.5-2.4,5.6,3.75,4.9,6.13Zm0,0"/><path class="cls-2" d="M679.82,970.19c.08,2.47-2.79,4.51-6.35,4.56S667,972.83,667,970.4s2.81-4.52,6.39-4.58,6.48,1.91,6.48,4.37Zm0,0"/><path class="cls-2" d="M702.63,966.31c.42,2.4-2,4.88-5.59,5.54s-6.69-.86-7.14-3.24,2.09-5,5.56-5.59,6.72.84,7.17,3.29Zm0,0"/></svg>